<svg width="49" height="36" viewBox="0 0 49 36" fill="none" xmlns="http://www.w3.org/2000/svg">
<path d="M36.0568 14H33.5328C32.7834 11.102 31.2348 8.47198 29.0631 6.40879C26.8913 4.3456 24.1835 2.93198 21.2473 2.32855C18.3111 1.72512 15.2642 1.95608 12.4529 2.99518C9.64162 4.03429 7.1786 5.83987 5.34373 8.20676C3.50887 10.5737 2.37574 13.407 2.07309 16.3847C1.77045 19.3625 2.31043 22.3653 3.63168 25.0519C4.95293 27.7386 7.00247 30.0014 9.54741 31.5831C12.0923 33.1649 15.0306 34.0022 18.0284 34H36.0568C38.7131 34 41.2607 32.9464 43.139 31.0711C45.0173 29.1957 46.0725 26.6522 46.0725 24C46.0725 21.3478 45.0173 18.8043 43.139 16.9289C41.2607 15.0536 38.7131 14 36.0568 14Z" stroke="#F3F3F3" stroke-width="4" stroke-linecap="round" stroke-linejoin="round"/>
</svg>
